<svg xmlns="http://www.w3.org/2000/svg" style="display:none">
  <symbol id="icon-search" viewBox="0 0 24 24">
    <circle cx="11" cy="11" r="7"/>
    <path d="M20 20l-3.5-3.5"/>
  </symbol>
  <symbol id="icon-dice" viewBox="0 0 24 24">
    <rect x="4.5" y="4.5" width="15" height="15" rx="2"/>
    <circle cx="9" cy="9" r="1"/>
    <circle cx="15" cy="9" r="1"/>
    <circle cx="12" cy="12" r="1"/>
    <circle cx="9" cy="15" r="1"/>
    <circle cx="15" cy="15" r="1"/>
  </symbol>
  <symbol id="icon-menu" viewBox="0 0 24 24">
    <path d="M4 7h16M4 12h16M4 17h16"/>
  </symbol>
  <symbol id="icon-chevron-right" viewBox="0 0 24 24">
    <path d="M9 6l6 6-6 6"/>
  </symbol>
  <symbol id="icon-chevron-down" viewBox="0 0 24 24">
    <path d="M6 9l6 6 6-6"/>
  </symbol>
  <symbol id="icon-close" viewBox="0 0 24 24">
    <path d="M6 6l12 12M18 6L6 18"/>
  </symbol>
  <symbol id="icon-plus" viewBox="0 0 24 24">
    <path d="M12 5v14M5 12h14"/>
  </symbol>
  <symbol id="icon-edit" viewBox="0 0 24 24">
    <path d="M4 20l.8-3.2L16.5 5.1a1.6 1.6 0 0 1 2.3 0l.1.1a1.6 1.6 0 0 1 0 2.3L7.2 19.2 4 20z"/>
  </symbol>
  <symbol id="icon-trash" viewBox="0 0 24 24">
    <path d="M4 7h16M10 11v6M14 11v6M6 7l1 13h10l1-13M9 7V4h6v3"/>
  </symbol>
  <symbol id="icon-play" viewBox="0 0 24 24">
    <path d="M8 5.5v13l11-6.5z"/>
  </symbol>
  <symbol id="icon-pause" viewBox="0 0 24 24">
    <path d="M9 5v14M15 5v14"/>
  </symbol>
  <symbol id="icon-check" viewBox="0 0 24 24">
    <path d="M5 12l4.5 4.5L19 7.5"/>
  </symbol>
  <symbol id="icon-alert-triangle" viewBox="0 0 24 24">
    <path d="M12 4L2.5 20h19z"/>
    <path d="M12 10v4M12 17v.5"/>
  </symbol>
  <symbol id="icon-alert-circle" viewBox="0 0 24 24">
    <circle cx="12" cy="12" r="9"/>
    <path d="M12 8v5M12 16.5v.5"/>
  </symbol>
  <symbol id="icon-info" viewBox="0 0 24 24">
    <circle cx="12" cy="12" r="9"/>
    <path d="M12 11v5M12 7.5v.5"/>
  </symbol>
  <symbol id="icon-shield" viewBox="0 0 24 24">
    <path d="M12 3l7 3v5c0 4.5-3 7.5-7 9-4-1.5-7-4.5-7-9V6z"/>
  </symbol>
  <symbol id="icon-eye" viewBox="0 0 24 24">
    <path d="M2.5 12S6 5.5 12 5.5 21.5 12 21.5 12 18 18.5 12 18.5 2.5 12 2.5 12z"/>
    <circle cx="12" cy="12" r="3"/>
  </symbol>
  <symbol id="icon-eye-off" viewBox="0 0 24 24">
    <path d="M2.5 12S6 5.5 12 5.5 21.5 12 21.5 12 18 18.5 12 18.5 2.5 12 2.5 12z"/>
    <circle cx="12" cy="12" r="3"/>
    <path d="M4 4l16 16"/>
  </symbol>
  <symbol id="icon-book" viewBox="0 0 24 24">
    <path d="M2 3h6a4 4 0 0 1 4 4v14a3 3 0 0 0-3-3H2z"/>
    <path d="M22 3h-6a4 4 0 0 0-4 4v14a3 3 0 0 1 3-3h7z"/>
  </symbol>
  <symbol id="icon-scroll" viewBox="0 0 24 24">
    <path d="M5 4v16"/>
    <path d="M19 4v16"/>
    <path d="M5 4c2-1 3-1 5 0 2 1 3 1 5 0 2-1 3-1 5 0"/>
    <path d="M5 20c2 1 3 1 5 0 2-1 3-1 5 0 2 1 3 1 5 0"/>
    <path d="M5 8h14M5 12h14M5 16h14"/>
  </symbol>
  <symbol id="icon-map" viewBox="0 0 24 24">
    <path d="M9 4L4 6v14l5-2 6 2 5-2V4l-5 2z"/>
    <path d="M9 4v14M15 6v14"/>
  </symbol>
  <symbol id="icon-swords" viewBox="0 0 24 24">
    <path d="M5 18L19 4"/>
    <path d="M5 12l6 6"/>
    <circle cx="5" cy="18" r="0.9"/>
    <path d="M19 18L5 4"/>
    <path d="M19 12l-6 6"/>
    <circle cx="19" cy="18" r="0.9"/>
  </symbol>
  <symbol id="icon-users" viewBox="0 0 24 24">
    <circle cx="15.5" cy="7.8" r="3"/>
    <path d="M11.5 20c.7-3 2.8-4.7 5-4.7s4.3 1.7 5 4.7"/>
    <circle cx="9" cy="8" r="3.5"/>
    <path d="M3 20c.8-3.8 3.2-5.8 6-5.8s5.2 2 6 5.8"/>
  </symbol>
  <symbol id="icon-user" viewBox="0 0 24 24">
    <circle cx="12" cy="8" r="3.5"/>
    <path d="M5 20c1-4 3.7-6 7-6s6 2 7 6"/>
  </symbol>
  <symbol id="icon-castle" viewBox="0 0 24 24">
    <path d="M4 20V10l3 2V6h3v4h4V6h3v6l3-2v10z"/>
    <path d="M2 20h20"/>
  </symbol>
  <symbol id="icon-coins" viewBox="0 0 24 24">
    <circle cx="9.5" cy="14.5" r="6"/>
    <circle cx="14.5" cy="9.5" r="6"/>
  </symbol>
  <symbol id="icon-gem" viewBox="0 0 24 24">
    <path d="M6 4h12l4 6-10 10L2 10z"/>
    <path d="M2 10h20M9 4l3 6 3-6"/>
  </symbol>
  <symbol id="icon-note" viewBox="0 0 24 24">
    <path d="M6 3v12.5a3 3 0 1 0 2 2.8V8l10-2v9.5a3 3 0 1 0 2 2.8V4z"/>
  </symbol>
  <symbol id="icon-calendar" viewBox="0 0 24 24">
    <rect x="3" y="5" width="18" height="16" rx="2"/>
    <path d="M3 10h18M8 3v4M16 3v4"/>
  </symbol>
  <symbol id="icon-flag" viewBox="0 0 24 24">
    <path d="M5 21V4"/>
    <path d="M5 4c4-2.5 8 2.5 14 0v9c-6 2.5-10-2.5-14 0"/>
  </symbol>
  <symbol id="icon-location" viewBox="0 0 24 24">
    <path d="M12 21s-7-6.2-7-11a7 7 0 0 1 14 0c0 4.8-7 11-7 11z"/>
    <circle cx="12" cy="10" r="2.5"/>
  </symbol>
  <symbol id="icon-music" viewBox="0 0 24 24">
    <path d="M9 18V5l10-2v13"/>
    <circle cx="6.5" cy="18" r="2.5"/>
    <circle cx="16.5" cy="16" r="2.5"/>
  </symbol>
  <symbol id="icon-sparkles" viewBox="0 0 24 24">
    <path d="M12 3l1.8 5.2L19 10l-5.2 1.8L12 17l-1.8-5.2L5 10l5.2-1.8z"/>
    <path d="M19 15l.8 2.2L22 18l-2.2.8L19 21l-.8-2.2L16 18l2.2-.8z"/>
  </symbol>
  <symbol id="icon-layers" viewBox="0 0 24 24">
    <path d="M12 3l9 5-9 5-9-5z"/>
    <path d="M3 13l9 5 9-5"/>
  </symbol>
  <symbol id="icon-brush" viewBox="0 0 24 24">
    <path d="M14 4l6 6-9 9-3 .5L9 16z"/>
    <path d="M14 4l-6 6M16 6l-6 6"/>
  </symbol>
  <symbol id="icon-fill" viewBox="0 0 24 24">
    <path d="M13 3l7 7-6 6a3.5 3.5 0 0 1-5 0l-6-6z"/>
    <path d="M11.5 16.8v1.2"/>
    <path d="M3.5 20h17"/>
  </symbol>
  <symbol id="icon-select" viewBox="0 0 24 24">
    <rect x="4" y="4" width="13" height="13" rx="1"/>
    <path d="M13 21l-2.5-7.5L18 16z"/>
  </symbol>
  <symbol id="icon-square" viewBox="0 0 24 24">
    <rect x="5" y="5" width="14" height="14" rx="1"/>
  </symbol>
  <symbol id="icon-circle" viewBox="0 0 24 24">
    <circle cx="12" cy="12" r="7"/>
  </symbol>
  <symbol id="icon-line" viewBox="0 0 24 24">
    <path d="M5 19L19 5"/>
  </symbol>
  <symbol id="icon-polygon" viewBox="0 0 24 24">
    <path d="M12 4l7 5-3 11H8L5 9z"/>
  </symbol>
  <symbol id="icon-door" viewBox="0 0 24 24">
    <rect x="5" y="4" width="14" height="16" rx="1"/>
    <circle cx="15" cy="12" r="1"/>
  </symbol>
  <symbol id="icon-corridor" viewBox="0 0 24 24">
    <path d="M4 4h16v16H4z"/>
    <path d="M9 4v16M15 4v16"/>
  </symbol>
  <symbol id="icon-room" viewBox="0 0 24 24">
    <rect x="4" y="4" width="16" height="16" rx="1"/>
    <path d="M4 10h6M10 4v6"/>
  </symbol>
  <symbol id="icon-pin" viewBox="0 0 24 24">
    <path d="M12 4a5 5 0 0 0-5 5c0 4 5 11 5 11s5-7 5-11a5 5 0 0 0-5-5z"/>
    <circle cx="12" cy="9" r="2"/>
  </symbol>
  <symbol id="icon-undo" viewBox="0 0 24 24">
    <path d="M8 5L4 9l4 4"/>
    <path d="M4 9h10a6 6 0 0 1 6 6v2"/>
  </symbol>
  <symbol id="icon-redo" viewBox="0 0 24 24">
    <path d="M16 5l4 4-4 4"/>
    <path d="M20 9H10a6 6 0 0 0-6 6v2"/>
  </symbol>
  <symbol id="icon-download" viewBox="0 0 24 24">
    <path d="M12 4v10M7.5 10.5L12 15l4.5-4.5"/>
    <path d="M4 19h16"/>
  </symbol>
  <symbol id="icon-upload" viewBox="0 0 24 24">
    <path d="M12 14V4M7.5 8.5L12 4l4.5 4.5"/>
    <path d="M4 19h16"/>
  </symbol>
  <symbol id="icon-settings" viewBox="0 0 24 24">
    <circle cx="12" cy="12" r="3.5"/>
    <path d="M12 2.5v3M12 18.5v3M2.5 12h3M18.5 12h3M5.3 5.3l2.1 2.1M16.6 16.6l2.1 2.1M18.7 5.3l-2.1 2.1M7.4 16.6l-2.1 2.1"/>
  </symbol>
  <symbol id="icon-help" viewBox="0 0 24 24">
    <circle cx="12" cy="12" r="9"/>
    <path d="M9.5 9a2.5 2.5 0 1 1 3.8 2.1c-.8.5-1.3 1-1.3 1.9"/>
    <path d="M12 16.5v.5"/>
  </symbol>
  <symbol id="icon-external-link" viewBox="0 0 24 24">
    <path d="M10 4H4v16h16v-6"/>
    <path d="M13 4h7v7M20 4L11 13"/>
  </symbol>
  <symbol id="icon-grip" viewBox="0 0 24 24">
    <circle cx="9" cy="6" r="1.2"/>
    <circle cx="15" cy="6" r="1.2"/>
    <circle cx="9" cy="12" r="1.2"/>
    <circle cx="15" cy="12" r="1.2"/>
    <circle cx="9" cy="18" r="1.2"/>
    <circle cx="15" cy="18" r="1.2"/>
  </symbol>
  <symbol id="icon-filter" viewBox="0 0 24 24">
    <path d="M4 5h16l-6.5 7.5V19l-3 2v-8.5z"/>
  </symbol>
  <symbol id="icon-sort" viewBox="0 0 24 24">
    <path d="M7 4v16M7 20l-3-3M7 20l3-3"/>
    <path d="M17 20V4M17 4l-3 3M17 4l3 3"/>
  </symbol>
  <symbol id="icon-star" viewBox="0 0 24 24">
    <path d="M12 3l2.7 5.8 6.3.7-4.7 4.3 1.3 6.2L12 17l-5.6 3 1.3-6.2L3 9.5l6.3-.7z"/>
  </symbol>
  <symbol id="icon-clock" viewBox="0 0 24 24">
    <circle cx="12" cy="12" r="9"/>
    <path d="M12 7v5l3.5 2"/>
  </symbol>
  <symbol id="icon-heart" viewBox="0 0 24 24">
    <path d="M12 20s-8-5-8-11a4.5 4.5 0 0 1 8-3 4.5 4.5 0 0 1 8 3c0 6-8 11-8 11z"/>
  </symbol>
  <symbol id="icon-skull" viewBox="0 0 24 24">
    <circle cx="12" cy="11" r="6"/>
    <circle cx="9.5" cy="10" r="1"/>
    <circle cx="14.5" cy="10" r="1"/>
    <path d="M12 12.5v1.2"/>
    <path d="M8.5 17c0 1.4 1.6 2.4 3.5 2.4s3.5-1 3.5-2.4"/>
    <path d="M10.5 17v2.2M13.5 17v2.2"/>
  </symbol>
  <symbol id="icon-concentration" viewBox="0 0 24 24">
    <circle cx="12" cy="12" r="9"/>
    <circle cx="12" cy="12" r="5"/>
    <circle cx="12" cy="12" r="1.5"/>
  </symbol>
</svg>
